<?xml version="1.0" standalone="no"?>
<!DOCTYPE svg PUBLIC "-//W3C//DTD SVG 20010904//EN"
 "http://www.w3.org/TR/2001/REC-SVG-20010904/DTD/svg10.dtd">
<svg version="1.0" xmlns="http://www.w3.org/2000/svg"
 width="512.000000pt" height="512.000000pt" viewBox="0 0 512.000000 512.000000"
 preserveAspectRatio="xMidYMid meet">

<g transform="translate(0.000000,512.000000) scale(0.100000,-0.100000)"
fill="#000000" stroke="none">
<path d="M2365 4784 c-276 -39 -467 -105 -640 -221 l-53 -34 -39 20 c-119 60
-326 68 -476 17 -199 -67 -369 -189 -565 -406 -411 -453 -633 -918 -583 -1217
38 -226 216 -427 441 -497 41 -13 99 -27 128 -31 28 -4 52 -8 52 -10 0 -2 -7
-32 -15 -67 -47 -206 -68 -527 -45 -730 34 -311 147 -570 337 -769 253 -265
605 -416 1135 -486 192 -26 844 -26 1036 0 530 70 882 221 1135 486 190 199
303 458 337 769 23 203 2 524 -45 730 -8 35 -15 65 -15 67 0 2 24 6 53 10 81
11 196 51 262 90 112 67 215 186 271 311 114 258 -8 650 -342 1094 -227 301
-439 501 -641 603 -199 101 -449 116 -606 36 l-39 -20 -53 34 c-134 90 -339
171 -510 202 -86 16 -448 29 -520 19z m365 -314 c446 -53 722 -273 950 -755
68 -142 91 -203 220 -565 54 -151 132 -367 173 -480 84 -230 129 -388 151
-541 43 -298 23 -589 -54 -785 -66 -166 -200 -334 -340 -424 -254 -164 -548
-242 -1037 -274 l-73 -5 0 323 0 322 48 23 c164 80 346 278 404 439 29 81 34
185 14 256 -41 139 -128 214 -306 263 -96 26 -544 26 -640 0 -178 -49 -265
-124 -306 -263 -20 -71 -15 -175 14 -256 58 -161 240 -359 405 -439 l47 -23 0
-322 0 -322 -77 4 c-696 43 -1105 220 -1308 566 -132 225 -173 543 -119 917
22 153 67 312 151 541 41 113 119 329 173 480 127 358 152 421 220 565 178
376 395 598 680 697 170 59 412 82 610 58z m-1321 -199 c-194 -266 -298 -482
-472 -981 -48 -135 -113 -317 -145 -405 l-60 -160 -33 -3 c-44 -5 -143 15
-195 38 -84 36 -163 130 -182 215 -12 56 3 169 34 257 93 258 341 611 592 841
103 94 152 129 238 168 77 35 122 47 188 48 46 1 48 0 35 -18z m2494 -16 c92
-37 166 -87 268 -181 254 -234 500 -583 593 -842 31 -88 46 -201 34 -257 -19
-85 -98 -179 -182 -215 -52 -23 -151 -43 -195 -38 l-33 3 -60 160 c-32 88 -97
270 -145 405 -175 503 -271 701 -470 979 l-18 24 71 -6 c40 -3 99 -17 137 -32z
m-1070 -2300 c64 -23 69 -46 27 -132 -59 -119 -217 -253 -300 -253 -83 0 -241
134 -300 253 -42 86 -37 110 27 131 70 22 99 24 308 21 148 -2 200 -7 238 -20z"/>
<path d="M1988 3120 c-128 -40 -189 -181 -130 -297 34 -66 111 -113 187 -113
49 0 129 45 161 91 36 53 45 147 19 202 -19 41 -58 83 -95 102 -34 18 -109 26
-142 15z"/>
<path d="M2989 3103 c-192 -98 -124 -393 91 -393 215 0 283 295 91 393 -30 15
-71 27 -91 27 -20 0 -61 -12 -91 -27z"/>
</g>
</svg>
