<?xml version="1.0" standalone="no"?>
<!DOCTYPE svg PUBLIC "-//W3C//DTD SVG 20010904//EN"
 "http://www.w3.org/TR/2001/REC-SVG-20010904/DTD/svg10.dtd">
<svg version="1.0" xmlns="http://www.w3.org/2000/svg"
 width="512.000000pt" height="512.000000pt" viewBox="0 0 512.000000 512.000000"
 preserveAspectRatio="xMidYMid meet">

<g transform="translate(0.000000,512.000000) scale(0.100000,-0.100000)"
fill="#000000" stroke="none">
<path d="M2345 5114 c-732 -61 -1199 -371 -1505 -999 -117 -241 -199 -492
-264 -816 -90 -444 -131 -880 -142 -1514 l-6 -330 98 -76 c371 -285 1003 -718
1712 -1173 l322 -207 323 207 c708 455 1340 888 1711 1173 l98 76 -6 330 c-12
641 -52 1069 -142 1514 -65 324 -147 575 -264 816 -280 575 -692 881 -1315
976 -127 20 -496 33 -620 23z m378 -314 c739 -43 1156 -384 1407 -1150 146
-444 221 -1003 246 -1831 l6 -207 -99 -74 c-273 -207 -791 -562 -1340 -919
l-383 -249 -382 249 c-551 357 -1074 716 -1341 918 l-99 75 6 207 c25 828 100
1387 246 1831 189 575 472 907 904 1059 166 59 317 82 636 99 14 1 101 -3 193
-8z"/>
<path d="M1670 3918 c-151 -43 -197 -231 -85 -344 56 -56 121 -72 197 -50 191
55 197 324 9 391 -49 17 -71 18 -121 3z"/>
<path d="M3303 3905 c-32 -16 -61 -41 -79 -67 -26 -37 -29 -50 -29 -118 0 -65
4 -82 25 -112 86 -127 255 -128 342 -3 95 136 -8 325 -178 325 -16 0 -53 -11
-81 -25z"/>
<path d="M2483 3611 c-165 -87 -349 -254 -461 -419 -235 -344 -300 -761 -187
-1205 92 -360 314 -740 614 -1049 52 -54 102 -98 111 -98 20 0 179 162 274
280 445 553 606 1181 440 1715 -82 262 -265 517 -494 685 -67 49 -207 131
-222 130 -2 0 -36 -18 -75 -39z m172 -390 c174 -147 290 -338 347 -568 29
-117 31 -354 4 -488 -52 -261 -183 -540 -380 -802 -33 -46 -63 -83 -66 -83 -3
0 -33 37 -66 83 -197 262 -328 541 -380 802 -27 134 -25 371 4 488 41 167 106
299 215 436 56 71 203 201 227 201 8 0 51 -31 95 -69z"/>
</g>
</svg>
